<svg width="189" height="40" viewBox="0 0 189 40" fill="none" xmlns="http://www.w3.org/2000/svg">
<path d="M11.5938 31.375C16.7812 31.375 20.3125 28.6406 21.1719 23.9844H17.6875C16.9844 26.7031 14.75 28.3125 11.6094 28.3125C7.46875 28.3125 4.84375 24.9844 4.84375 19.7188C4.84375 14.5 7.5 11.1406 11.5938 11.1406C14.6562 11.1406 17.0625 13.0312 17.6875 15.9219H21.1562C20.5625 11.2188 16.7031 8.07812 11.5938 8.07812C5.29688 8.07812 1.26562 12.5781 1.26562 19.7188C1.26562 26.9062 5.26562 31.375 11.5938 31.375ZM30.9844 31.3125C35.6875 31.3125 38.7812 28.0781 38.7812 22.7812C38.7812 17.5 35.6719 14.2656 30.9844 14.2656C26.2969 14.2656 23.1875 17.5 23.1875 22.7812C23.1875 28.0781 26.2812 31.3125 30.9844 31.3125ZM30.9844 28.5312C28.3438 28.5312 26.625 26.4375 26.625 22.7812C26.625 19.1406 28.3438 17.0469 30.9844 17.0469C33.625 17.0469 35.3438 19.1406 35.3438 22.7812C35.3438 26.4375 33.6406 28.5312 30.9844 28.5312ZM41.3906 31H44.7656V21.4219C44.7656 18.875 46.2969 17.1875 48.6719 17.1875C51.0156 17.1875 52.1719 18.5469 52.1719 21.0156V31H55.5625V20.3594C55.5625 16.5938 53.4844 14.2812 49.8594 14.2812C47.3281 14.2812 45.5781 15.4375 44.6875 17.3125H44.6094V14.5625H41.3906V31ZM59.8125 10.6719V14.5625H57.4219V17.2344H59.8125V26.6719C59.8125 29.8438 61.1094 31.1094 64.4375 31.1094C65.1875 31.1094 65.9375 31.0469 66.3125 30.9531V28.2812C66.0938 28.3281 65.5469 28.3594 65.2031 28.3594C63.8281 28.3594 63.2031 27.7188 63.2031 26.2969V17.2344H66.3281V14.5625H63.2031V10.6719H59.8125ZM69.1094 31H72.4844V21.1562C72.4844 18.8281 73.8281 17.375 76 17.375C76.6562 17.375 77.25 17.4531 77.5156 17.5625V14.4219C77.2656 14.375 76.8438 14.2969 76.3594 14.2969C74.4219 14.2969 72.9531 15.4375 72.4062 17.3594H72.3281V14.5625H69.1094V31ZM79.7344 31H83.1094V8.45312H79.7344V31Z" fill="black"/>
<path d="M116.078 24.7188C116.297 28.7969 119.672 31.375 124.672 31.375C130.016 31.375 133.375 28.7344 133.375 24.5156C133.375 21.2188 131.453 19.3594 126.828 18.2656L124.344 17.6562C121.438 16.9375 120.25 16 120.25 14.4062C120.25 12.4062 122.109 11.0312 124.828 11.0312C127.547 11.0312 129.406 12.3906 129.609 14.6406H133.016C132.906 10.75 129.641 8.07812 124.875 8.07812C120.062 8.07812 116.672 10.75 116.672 14.6406C116.672 17.7812 118.594 19.7188 122.734 20.7188L125.656 21.4219C128.578 22.1406 129.812 23.1875 129.812 24.9375C129.812 26.9531 127.766 28.4219 124.922 28.4219C121.953 28.4219 119.781 26.9531 119.531 24.7188H116.078ZM137.094 10.6719V14.5625H134.703V17.2344H137.094V26.6719C137.094 29.8438 138.391 31.1094 141.719 31.1094C142.469 31.1094 143.219 31.0469 143.594 30.9531V28.2812C143.375 28.3281 142.828 28.3594 142.484 28.3594C141.109 28.3594 140.484 27.7188 140.484 26.2969V17.2344H143.609V14.5625H140.484V10.6719H137.094ZM153.047 31.3125C157.75 31.3125 160.844 28.0781 160.844 22.7812C160.844 17.5 157.734 14.2656 153.047 14.2656C148.359 14.2656 145.25 17.5 145.25 22.7812C145.25 28.0781 148.344 31.3125 153.047 31.3125ZM153.047 28.5312C150.406 28.5312 148.688 26.4375 148.688 22.7812C148.688 19.1406 150.406 17.0469 153.047 17.0469C155.688 17.0469 157.406 19.1406 157.406 22.7812C157.406 26.4375 155.703 28.5312 153.047 28.5312ZM163.453 31H166.828V21.1562C166.828 18.8281 168.172 17.375 170.344 17.375C171 17.375 171.594 17.4531 171.859 17.5625V14.4219C171.609 14.375 171.188 14.2969 170.703 14.2969C168.766 14.2969 167.297 15.4375 166.75 17.3594H166.672V14.5625H163.453V31ZM180.109 16.9844C182.469 16.9844 184.062 18.75 184.141 21.2656H175.922C176.094 18.7812 177.75 16.9844 180.109 16.9844ZM184.125 26.1719C183.672 27.6094 182.25 28.5781 180.328 28.5781C177.625 28.5781 175.906 26.6875 175.906 23.8281V23.625H187.516V22.4688C187.516 17.4844 184.672 14.2656 180.109 14.2656C175.469 14.2656 172.5 17.7031 172.5 22.8594C172.5 28.0469 175.422 31.3125 180.25 31.3125C184.016 31.3125 186.859 29.1719 187.328 26.1719H184.125Z" fill="#5B5858"/>
<line x1="99.5" y1="40" x2="99.5" stroke="black"/>
</svg>
